<svg id="Layer_1" xmlns="http://www.w3.org/2000/svg" viewBox="0 0 134 104"><style>.st0{fill:none;stroke:#000;stroke-miterlimit:10}</style><path class="st0" d="M67.1 35.8h1c.8.1 1.7.4 2.5.5.6.1 1.2.2 1.8.1 1.4-.4 2.7-1.1 3.9-1.9 3-1.7 6.1-3 9.4-3.8 2.1-.5 4.1-.7 6.2-.8 6.8-.4 13.6 0 20.3 1.3 1.7.3 3.3.7 5 1.1 1 .3 4.1.5 4.9 1.3.7.8.3 3.5.3 4.6 0 1.8 0 3.6-.1 5.4 0 1.4-2 2.4-2.8 3.5-2.2 2.7-2.8 6.4-4.2 9.5-1.5 3.3-3.6 6.2-6.3 8.6-8.8 7.8-23 6.3-30.9-2-3.1-3.6-5.2-8-6-12.7-.2-1.4-.5-2.8-1-4.1-.2-.4-.4-.9-.8-1.2-.3-.4-.6-.7-1-1-.4-.3-.8-.5-1.3-.6-.5-.1-1.1-.2-1.6-.1s-.9.2-1.3.5c-.4.2-.8.5-1.2.9-.4.3-.7.7-.9 1.1-.1.1-.1.3-.2.4-.5 1.3-.9 2.7-1 4.1-.8 4.7-2.9 9.1-6 12.7-7.9 8.3-22.1 9.8-30.9 2-2.7-2.4-4.8-5.4-6.3-8.7-1.4-3.1-2-6.8-4.2-9.5-.8-1-2.8-2-2.8-3.5-.1-1.8-.1-3.6 0-5.4 0-1-.3-3.9.3-4.6.7-.7 3.8-1 4.9-1.3 1.6-.4 3.3-.7 5-1.1 6.7-1.3 13.5-1.8 20.3-1.3 2.1.1 4.2.4 6.2.9 3.3.9 6.4 2.2 9.4 3.8 1.2.8 2.5 1.5 3.9 1.9.9.1 1.9 0 2.8-.3l2.7-.3z"/><path class="st0" d="M26.4 35.4c5.2-3.1 12.6-3.5 18.5-2.4 5.8 1.1 11 3.6 13 9.5 3.1 8.7-2.2 20.2-10.8 23.3-2.4.8-4.8 1.2-7.3 1.1-5.2-.1-10.5-1.8-13.9-6.1-3.5-4.4-6.2-9.6-5.7-15.4.2-4.1 2.6-7.9 6.2-10zM107.6 35.4c-5.2-3.1-12.6-3.5-18.5-2.4-5.8 1.1-11 3.6-13.1 9.5-3 8.7 2.2 20.1 10.9 23.3 2.4.8 4.8 1.2 7.3 1.1 5.2-.1 10.5-1.8 13.9-6.1 3.5-4.4 6.1-9.6 5.6-15.4-.1-4.1-2.4-7.9-6.1-10zM24.6 1.5l2.7 5.4 6 .9-4.3 4.3 1 5.9-5.4-2.8-5.4 2.8 1.1-5.9-4.4-4.3 6-.9zM105.4 84.7l1.3 2.8 3.1.5-2.2 2.1.5 3.1-2.7-1.5-2.8 1.5.6-3.1-2.3-2.1 3.1-.5zM79.7 83.6l3.1 6.3 7 1-5.1 4.9 1.2 7-6.2-3.3-6.3 3.3 1.2-7-5-4.9 6.9-1z"/></svg>