<svg id="Layer_1" xmlns="http://www.w3.org/2000/svg" viewBox="0 0 134 104"><style>.st0{fill:#231f20}</style><path class="st0" d="M51.8 44.8c-.4 0-.8-.3-.9-.7 0-.1-.2-1.1.6-2.1.7-.9 2-1.3 3.7-1.3h1.2c1.7 0 3.7-.1 5.2.2 2.7.6 4.2 1.8 4.2 1.9.4.3.4.9.1 1.3-.3.4-.9.4-1.3.1 0 0-1.2-1-3.4-1.5-1.3-.3-3.3-.2-4.8-.2h-1.3c-1.1 0-1.9.2-2.3.6-.3.3-.2.6-.2.7.1.5-.3.9-.8 1zM87.9 44.5c-.4 0-.8-.3-.9-.7 0-.1-.6-1.7-3.6-1.7h-1.5c-1.5 0-4.1-.1-4.9.1-1.3.4-1.4 1-1.4 1 0 .5-.4.9-.9.9s-.9-.4-.9-.9c0-.2.1-1.9 2.7-2.7 1-.3 3-.2 5.5-.2h1.4c4.5 0 5.3 2.9 5.3 3 .1.5-.2 1-.6 1.1 0 .1-.1.1-.2.1zM63.9 65.6h-.3c-.1 0-.8-.3-1.3-1.1-.3-.4-.1-1 .3-1.2.4-.3 1-.1 1.2.3.1.2.3.3.3.3.5.2.7.7.5 1.2 0 .3-.3.5-.7.5z"/><path class="st0" d="M70.1 66.6c-1.5 0-3-.7-3.8-1.3L66 65c-.1-.1-.1-.1-.3-.2-.1 0-.4 0-.7.1-.5.2-1 0-1.2-.4-.2-.5 0-1 .4-1.2.2-.1 1.6-.7 2.6.1l.6.6c.6.4 2.9 1.7 4.5 0 .8-1 2.1-1.6 3.2-.8.4.3.5.9.2 1.3s-.9.5-1.3.2c-.1 0-.5.3-.7.6-.9 1-2.1 1.3-3.2 1.3z"/><path class="st0" d="M75.3 66c-.4 0-.8-.3-.9-.8-.1-.5.3-.9.8-1 .2 0 .8-.2.8-1 0-.5.4-.9.9-.9s.9.4.9.9c0 1.9-1.5 2.6-2.3 2.7-.1.1-.2.1-.2.1zM69.8 76.4c-2.5 0-4.8-.3-5.9-.8-.5-.2-.7-.7-.5-1.2.2-.5.7-.7 1.2-.5 1.7.8 8.5.9 11.1-.3.5-.2 1 0 1.2.4.2.5 0 1-.4 1.2-1.5.8-4.2 1.2-6.7 1.2zM46.1 53.9c-.4 0-.8-.3-.9-.7-.6-2.9-.9-4.7-.9-5.8 0-2.6 2.3-13 2.9-15.3.2-.6.4-1.2.5-1.8.6-1.9 1.2-3.8 1.2-5.1 0-2.1 1.5-5.5 3.7-5.7.5 0 .9.3 1 .8 0 .5-.3.9-.8 1-.8.1-2.1 2.2-2.1 3.9 0 1.6-.6 3.6-1.3 5.6-.2.6-.4 1.2-.5 1.8-.7 2.4-2.9 12.5-2.8 14.8 0 1.1.4 3.2.9 5.5.1.5-.2 1-.7 1.1 0-.1-.1-.1-.2-.1z"/><path class="st0" d="M71.5 88.1c-4.8 0-10.7-1.1-12-2.8-1.8-2.4-5.2-6.1-8.2-9.4l-.6-.6c-2-2.1-2.7-6.8-3.3-10.6-.2-1-.3-1.9-.5-2.7-.1-.5.2-1 .7-1.1.5-.1 1 .2 1.1.7.2.8.3 1.7.5 2.8.5 3.3 1.2 7.9 2.8 9.6l.6.6c3.2 3.5 6.5 7 8.3 9.5.6.9 5.5 2.1 10.8 2.1 4.4 0 7.5-.9 8.6-2.5.6-.8 1.5-1.8 2.7-3 2.7-2.9 6.5-6.8 6.8-10 .7-5.5 2-10.6 2-10.7.1-.4.2-1 .3-1.6.1-.5.6-.8 1.1-.7.5.1.8.6.7 1.1-.1.6-.2 1.1-.3 1.6 0 .1-1.3 5.1-1.9 10.5-.5 3.8-4.4 8-7.3 11-1.1 1.1-2 2.1-2.5 2.8-1.9 2.6-6.5 3.2-10.1 3.2-.1.2-.2.2-.3.2z"/><path class="st0" d="M51 89.3c-.3 0-.6-.1-.7-.4-.3-.4-.2-1 .2-1.3 1.7-1.2 3-6.5 3.5-9.5.1-.5.5-.8 1-.8.5.1.8.5.8 1-.1.9-1.3 8.7-4.2 10.7-.3.2-.4.3-.6.3zM90.3 87.6c-.3 0-.5-.1-.7-.3-2.9-3.7-2-11.4-2-11.7.1-.5.5-.8 1-.8.5.1.8.5.8 1 0 .1-.9 7.3 1.6 10.4.3.4.3 1-.1 1.3-.2 0-.4.1-.6.1z"/><path class="st0" d="M36.2 94.4c-.5 0-.9-.4-.9-.9s.4-.9.9-.9c2.6 0 10.7-2.5 14.3-5 .4-.3 1-.2 1.3.2.3.4.2 1-.2 1.3-3.9 2.6-12.2 5.3-15.4 5.3zM103.5 95.1c-.1 0-.2 0-.3-.1l-1.5-.6c-4.2-1.7-9.5-3.9-12.1-7.1-.3-.4-.2-1 .1-1.3.4-.3.9-.3 1.3.1 2.3 2.9 7.3 4.9 11.3 6.6l1.5.6c.5.2.7.7.5 1.2-.1.4-.5.6-.8.6zM70.4 73.1c-.4 0-.9-.1-1.5-.3-.8-.2-1.8-.5-2.7-.5-.7 0-1.7.1-3.1.2-.5 0-.9-.3-1-.8 0-.5.3-.9.8-1 1.4-.1 2.5-.2 3.2-.2 1.1 0 2.2.3 3.1.6.4.1.9.2 1 .2.2 0 .7-.1 1.2-.3.9-.2 2-.5 3-.5.6 0 1.5.1 2.8.2.5 0 .9.5.8 1 0 .5-.5.8-1 .8-1.2-.1-2.1-.2-2.6-.2-.8 0-1.8.3-2.5.5-.5.2-1.1.3-1.5.3zM53.2 47.3c-.3 0-.7-.2-.8-.5-.2-.4 0-1 .4-1.2.2-.1 4.4-2.2 7.7-2 2.8.1 3.9 1.6 4.1 1.7.3.4.2 1-.2 1.3-.4.3-1 .2-1.3-.2 0 0-.8-.9-2.7-1-2.8-.1-6.8 1.8-6.8 1.8-.2.1-.3.1-.4.1z"/><path class="st0" d="M58.8 50c-2 0-3.6-1.5-3.7-3.5 0-.4.2-.8.6-.9 1.4-.5 2.8-1 4.1-1 .7 0 1.4.1 2.1.3.3.1.6.4.6.7 0 .2.1.4.1.6 0 1-.4 1.9-1.1 2.6-.7.8-1.7 1.2-2.7 1.2zm-1.7-3c.3.7 1 1.2 1.8 1.2.5 0 1-.2 1.4-.6.3-.3.5-.7.6-1.1-.3-.1-.7-.2-1-.1-.9 0-1.9.2-2.8.6zm4.6-.8zM86.8 47c-.1 0-.2 0-.4-.1 0 0-4.1-1.8-6.9-1.5-1.9.2-2.6 1.1-2.7 1.2-.3.4-.9.5-1.3.2s-.5-.8-.2-1.2c.1-.2 1.2-1.7 4-1.9 3.3-.3 7.6 1.6 7.8 1.6.5.2.7.7.5 1.2-.1.3-.4.5-.8.5z"/><path class="st0" d="M81.2 49.9c-.9 0-1.8-.3-2.5-1s-1.2-1.6-1.2-2.6v-.6c0-.3.3-.6.6-.7.7-.2 1.4-.4 2.1-.4 1.2 0 2.7.4 4.1.9.4.1.6.5.6.9-.1 1.9-1.6 3.5-3.6 3.6 0-.1-.1-.1-.1-.1zm-2-3.4c.1.4.3.8.6 1.1.4.3.9.5 1.4.5.8 0 1.4-.5 1.7-1.2-1-.3-2-.5-2.7-.5-.3 0-.6 0-1 .1z"/><path class="st0" d="M43.5 49.7c-.4 0-.7-.3-.9-.6-.4-1.5-.8-2.9-1-4.4-.3-1.6-.6-3-.9-4.4-.6-2.4-1.2-4.8-1.6-8.9-.4-3.5.9-7 2-10.2 1.1-3 2.1-5.8 1.4-7.9-1.4-4.1 3.4-6.6 6.5-8.2 1-.5 2-1 2.4-1.4 1.2-1 2.9-.9 4.6-.9 1.8.2 3.7.2 4.9-1C62.9-.3 66 0 68.6.2c.9.1 1.7.1 2.3.1 1.2-.1 2.4.3 3.7.7 1.8.5 3.7 1.1 5.1.3 2.7-1.6 5.2.3 7.4 2 .6.4 1.2.9 1.8 1.3.7.5 1.5.7 2.2 1 1.7.6 3.7 1.2 3.7 4.9 0 2 1.1 4.5 2.4 7.3 1.3 3 2.7 6.1 2.7 8.9 0 3.4-1.4 8.5-2.2 11.8-.4 1.3-.8 2.8-.8 3.2v4.5c0 .5-.3.9-.9.9-.5 0-.9-.4-.9-.9v-4.5c0-.5.3-1.5.8-3.6.9-3.3 2.2-8.2 2.2-11.4 0-2.3-1.3-5.3-2.6-8.1-1.3-2.9-2.5-5.7-2.5-8 0-2.4-.7-2.6-2.4-3.2-.8-.3-1.7-.6-2.6-1.2-.6-.4-1.2-.9-1.9-1.4C83.8 3 82.2 2 80.7 2.9c-2.1 1.2-4.4.5-6.5-.1-1.3-.5-2.3-.8-3.2-.8-.8 0-1.6 0-2.5-.1-2.3-.2-4.8-.4-6.2 1.1C60.5 4.8 58 4.8 56 4.7c-1.4 0-2.7-.1-3.4.5-.6.5-1.6 1-2.8 1.6-3.6 1.8-6.5 3.5-5.6 6 .9 2.6-.2 5.7-1.4 9-1.1 3.1-2.3 6.3-1.9 9.4.4 4 1 6.4 1.6 8.7.3 1.4.7 2.8 1 4.5.2 1.4.6 2.8 1 4.2.1.5-.1 1-.6 1.1h-.4z"/><path class="st0" d="M44 51.3c-.4 0-.7-.2-.9-.6l-.2-.7c-.2-.5.1-1 .6-1.1.5-.2 1 .1 1.1.6l.2.6c.2.5-.1 1-.6 1.1 0 .1-.1.1-.2.1zM41.4 49c-.4 0-.7-.2-.8-.6 0-.1-.9-2.2-1.2-3.5-.1-.6-.3-1.4-.5-2.1-.2-.8-.4-1.5-.5-1.8-.1-.9.3-1.6.5-2l.1-.2c.4-.7 1.1-.9 1.2-.9.5-.1 1 .2 1.1.7.1.5-.2.9-.6 1.1-.2.2-.2.3-.3.4-.2.4-.3.5-.3.7.1.3.2 1 .4 1.6.2.8.4 1.6.6 2.2.2 1.2 1 3.2 1.1 3.2.2.5 0 1-.5 1.2-.1-.1-.2 0-.3 0zM98 46.8h-.2a.8.8 0 0 1-.6-1.1c.5-2 1-3.9 1-4.3.1-1-.2-1.8-.6-2.1-.4-.3-.4-.9-.1-1.3.3-.4.9-.4 1.3-.1.9.8 1.3 2.2 1.2 3.6-.1.8-1 4.2-1.1 4.6-.2.4-.5.7-.9.7zM56 23.1c-3.4 0-4.9-1-5.1-1.2-.4-.3-.5-.9-.2-1.3s.8-.5 1.2-.2c.1 0 2 1.3 6.5.7 6.6-.9 12.5-2.9 13.1-4.5 1.1-2.7 5.1-5.1 6.1-5.1.5 0 .9.4.9.9s-.4.9-.9.9c-.4.1-3.6 1.9-4.4 4-1.5 3.8-14 5.6-14.6 5.6-1 .2-1.9.2-2.6.2z"/><path class="st0" d="M74.5 22.2c-3.6 0-7.5-.8-7.7-.9-.5-.1-.8-.6-.7-1.1.1-.5.6-.8 1.1-.7.1 0 7.2 1.6 10.8.4.9-.3 1.8-.5 2.6-.7 2.6-.7 4.7-1.3 5.9-3 1.7-2.5 2.4-4.1 2.5-4.1.2-.5.7-.6 1.2-.4.5.2.6.7.4 1.2 0 .1-.8 1.7-2.6 4.4-1.6 2.3-4 3-6.9 3.7-.8.2-1.6.4-2.5.7-1.2.4-2.6.5-4.1.5z"/><path class="st0" d="M94.4 50c-.5 0-.9-.4-.9-.9-.1-3.7-1.8-11.5-2.5-13.2-.6-1.5-1.8-5.2-2.2-12.8-.2-3.4-1-4.1-1.3-4.2-.3-.2-.7 0-.7 0-.4.2-1 .1-1.2-.3-.2-.4-.1-1 .3-1.2.5-.3 1.5-.6 2.5-.1 1.3.7 2.1 2.6 2.2 5.7.4 7.4 1.4 10.8 2 12.2.9 2.1 2.5 10.2 2.7 13.9.1.5-.3.9-.9.9.1 0 .1 0 0 0zM44.9 54.3c-.4 0-.8-.1-1.1-.2-.4-.2-.6-.8-.4-1.2.2-.4.8-.6 1.2-.4.1 0 .6 0 .9-.1.5-.1 1 .1 1.1.6.1.5-.1 1-.6 1.1-.1.1-.6.2-1.1.2zM44.5 51.5c-.4 0-.7-.2-.9-.6-.1-.5-.4-1.1-.7-1.8-.5-1.3-1.1-2.7-1.2-3.6-.1-.5.3-1 .7-1 .5-.1 1 .2 1 .7.1.7.7 2.1 1.1 3.2.3.8.6 1.5.7 2 .2.5-.1 1-.6 1.1h-.1z"/><path class="st0" d="M45.4 54.2c-.1 0-.3 0-.4-.1-.2-.1-.4-.3-.5-.5l-.3-1c-.2-.5.1-1 .6-1.1.5-.2 1 .1 1.1.6v.1c.2-.1.4-.1.6-.2 1.6-.6 4.5-1.6 8.7-1.7 5.6-.1 8.1 1.1 9.2 1.6l.3.1c.9.2 8.2.1 9-.2l.2-.1c1.2-.6 4.3-2.2 9.9-2.4 4.2-.1 7.4.9 9 1.4.2 0 .3.1.4.1.1-.3.2-.7.3-1.2.1-.5.6-.8 1.1-.6.5.1.8.6.6 1.1-.3 1.2-.6 2-.6 2-.1.4-.5.7-.9.6h-.3c-.3 0-.6-.1-1.2-.3-1.6-.5-4.5-1.4-8.4-1.3-5.3.1-8.1 1.6-9.1 2.2l-.3.2c-1 .5-9.4.7-10.5.2-.1 0-.2-.1-.4-.2-1-.5-3.2-1.5-8.4-1.4-3.9.1-6.6 1.1-8.1 1.6-.6.2-1 .4-1.3.4l-.2.1h-.1zM95.6 46.9h-.2a.8.8 0 0 1-.6-1.1l.1-.4c.2-.8.4-1.6.5-2.4.2-1.6.4-3.3.4-4.3 0-.5.4-.9.9-.9s.9.4.9.9c0 1.1-.2 2.8-.4 4.6-.1 1-.4 1.9-.6 2.7l-.1.4c-.1.2-.5.5-.9.5z"/><path class="st0" d="M56.2 66.4h-1c-6.9-.4-9.2-5.9-10.1-7.9-.1-.2-.2-.4-.2-.6-.2-.4-.6-.6-1.2-.9l-.5-.2c-1.1-.6-1.1-1.9-.7-3.1.2-.5.7-.7 1.2-.5.5.2.7.7.5 1.2-.2.3-.2.7-.2.8l.4.2c.7.4 1.5.7 2 1.7.1.2.2.4.3.7.8 2 2.7 6.5 8.5 6.8 3.6.2 6.6-.7 8.4-2.6 1.5-1.5 2.1-3.6 1.9-6.1 0-.2.1-.5.2-.7.2-.2.4-.3.7-.3l6.5-.1c.5 0 .9.4.9.9.1 2.5.9 4.5 2.5 5.9 1.9 1.7 4.7 2.3 8.2 2 6.1-.6 7.5-5 8.2-7.1.1-.4.2-.7.3-.9.5-1 1.2-1.4 1.9-1.7l.4-.2c.1-.1 0-.6-.1-.9-.2-.5.1-1 .6-1.1.5-.2 1 .1 1.1.6.3.8.5 2.3-.7 3l-.5.3c-.6.4-1 .5-1.2 1-.1.1-.1.3-.2.6-.7 2.1-2.5 7.6-9.7 8.4-4 .4-7.3-.4-9.5-2.4-1.8-1.6-2.8-3.7-3.1-6.3l-4.7.1c0 2.5-.9 4.8-2.5 6.5-1.8 1.9-4.9 2.9-8.6 2.9z"/><path class="st0" d="M96.2 53.5c-.5 0-.9-.4-.9-.8-.1 0-.2 0-.3.1-.2 0-.4.1-.6.1-.3 0-.5 0-.9-.1a.8.8 0 0 1-.6-1.1c.1-.5.6-.8 1.1-.6.3.1.4.1.4.1.1 0 .1 0 .2-.1.2-.1.6-.1.9-.1 1 0 1.6 1 1.6 1.7 0 .4-.4.8-.9.8z"/><path class="st0" d="M96.2 53.4H96c-.5-.1-.8-.6-.7-1.1l.2-.8c.1-.5.6-.8 1.1-.7.5.1.8.6.7 1.1l-.2.8c-.1.4-.4.7-.9.7z"/><path class="st0" d="M95.4 52.7h-.2a.8.8 0 0 1-.6-1.1l.1-.5c.1-.5.6-.8 1.1-.6.5.1.8.6.6 1.1l-.1.4c-.2.4-.5.7-.9.7zM8.6 82h-.2c-.5-.1-.8-.6-.7-1.1.1-.6.2-4.6.1-11.9v-1.2c0-1.5-.4-5.5-.7-7.7-.3-2.6 2-4.8 3.7-5.6 1.3-.7 3.2-1.8 3.9-2.8 1-1.3 6.4-5.5 6.9-5.7.9-.5 3.4-.3 4-.2.5.1 3.1.1 5.4.1 3.4 0 5 .1 5.4.1.8.1 3.6.8 3.6.8 4.1.8 4.3 1.7 4.5 2 .3 1-.2 1.9-.9 2.3-.4.2-1 .1-1.2-.4-.2-.4-.1-1 .4-1.2h.1c-.3-.2-1.1-.5-3.1-.9 0 0-2.8-.6-3.6-.7-.4-.1-3-.1-5.1-.1-3.1 0-5-.1-5.6-.1-1.2-.1-2.6-.1-2.9 0-.5.3-5.6 4.2-6.3 5.2-1.2 1.6-3.8 3-4.6 3.3-1.2.6-2.9 2.2-2.7 3.7.2 1.9.7 6.2.7 7.9V69c0 7.9 0 11.5-.2 12.2-.1.5-.5.8-.9.8zm34.3-32.5z"/><path class="st0" d="M2.1 94.8l-1.7-.6c.2-.7 1.4-2.7 3.3-6 1.6-2.8 3.8-6.7 4-7.3l1.8.4c-.1.7-1.5 3-4.2 7.8-1.4 2.4-3 5.2-3.2 5.7zM38 55.6c-.5 0-.9 0-1.2-.1-1.2-.1-2-.6-2.4-.7-.4-.3-.6-.8-.4-1.2.2-.4.8-.6 1.2-.4.3.2.8.5 1.7.5 2.4.2 6-.4 6.5-.9.8-.7.7-1.2.6-1.4 0 0-.4-.3-1.4-.3-1.3 0-1.9.1-1.9.1h-.4c-.1 0-.9-.2-1.3-.5 0 0-.4.1-.6.1-.6.1-1.1.2-1.5.1-.1 0-.3 0-.4-.1-.4 0-1-.1-1.6-.4-.4-.2-1.9-.7-3-1-.8-.2-1.6-.5-1.9-.6-.9-.3-2.4-1-2.4-1-.4-.1-.9-.2-1.5-.3-.4 0-.8-.1-1.1-.2-.5-.1-.8-.6-.7-1.1.1-.5.6-.8 1.1-.7.3.1.7.1 1 .2.7.1 1.4.2 1.9.4 0 0 1.5.6 2.4.9.3.1 1 .3 1.8.6 1.7.5 2.8.9 3.3 1.1.3.2.6.2.9.2.2 0 .5 0 .7.1.1 0 .5-.1.8-.1.7-.1 1.3-.2 1.7 0 .2.1.6.2.8.3.3-.1 1-.1 2.1-.1 2.3 0 2.9 1 3.1 1.5.5 1.5-.3 2.6-1.1 3.4-1.2 1.1-4.4 1.6-6.8 1.6z"/><path class="st0" d="M36 61.9c-.9 0-2-.4-2.9-1.2-.3-.3-2.9-2.9-3.7-4.5-.8-.1-2-.4-2.6-1.2-.2-.3-1.1-.8-1.7-1.2-1.2-.7-1.7-1-1.9-1.5-.2-.5 0-1 .5-1.2.5-.2 1 0 1.2.5.1 0 .7.4 1.2.7 1 .6 1.8 1.1 2.1 1.6.2.3 1.2.5 1.9.6.4 0 .7.4.8.8.2.6 2.3 3.1 3.4 4.1 1 .9 2 .8 2.3.6 0 0 .1-.1 0-.3-.5-.9-1.2-2.8-1.3-2.9-.1-.3-.6-1.3-1-1.9-.3-.5-2.7-2.7-3.5-3.3-.4-.3-2.3-1.3-3.8-2.1-1.2-.7-2.2-1.3-2.6-1.5-.6-.4-1.6-.4-1.9-.4-.1 0-.3.1-.4 0-.4-.1-.6-.3-.7-.7-.1-.4.1-.7.4-.9.5-.3 2.4-.4 3.6.4.3.2 1.4.8 2.5 1.4 1.7.9 3.4 1.9 3.9 2.2.9.6 3.4 3 4 3.8.4.6 1.1 1.9 1.2 2.4.1.4.7 1.8 1.1 2.5.6 1 .4 2-.4 2.6-.4.4-1 .6-1.7.6z"/><path class="st0" d="M27 62.8c-1.1 0-2.3-.4-3.1-1.7-.4-.6-.6-1-.8-1.3-.6 0-1.6-.2-2.3-.7h-.3c-.2 0-.5.1-.8 0-.6.9-1.7 2.5-2.9 3.5-.4.3-1 .2-1.3-.2-.3-.4-.2-1 .2-1.3 1.5-1.1 2.9-3.6 2.9-3.7.1-.3.4-.4.7-.5.3 0 .6.1.8.3h.2c.4 0 1-.1 1.6.3.3.2 1.2.3 1.7.3.3 0 .7.2.8.5 0 0 .3.5 1 1.6.8 1.2 2.1.8 2.5.7 0-.1 0-.3-.1-.6l-.3-1.6v-.2c0-.3-.4-1.5-.9-2.7-.2-.4-.2-.4-.4-.5-.6-.2-4-1.8-4.8-2.2-.3-.2-1.4-.4-2.5-.5-.5 0-.9-.5-.8-1 .1-.5.5-.9 1-.8.6.1 2.6.3 3.3.8.6.4 3.8 1.8 4.5 2.1 1 .4 1.2.9 1.4 1.6.3.7.9 2.4 1 3.2l.3 1.5c.1.5.4 2.1-.9 2.6-.4.4-1 .5-1.7.5z"/><path class="st0" d="M17.6 67.1l-1.6-.9c.1-.4-.2-2.3-.7-4l1.7-.5c.6 1.9 1.1 4.4.6 5.4z"/><path class="st0" d="M17.6 67.1l-1.6-.9c.1-.4-.2-2.3-.6-4.1l1.8-.4c.5 1.9.9 4.5.4 5.4zM29.1 66.1c-.3 0-.5-.1-.7-.4-1.3-1.7-3.7-1.8-3.7-1.8-.3 0-.5-.1-.7-.4-.2-.2-.2-.5-.1-.8.1-.3.2-1.3.3-1.8.1-.5.5-.8 1-.8.5.1.8.5.8 1 0 .1-.1.6-.2 1.1.8.2 2 .5 3.1 1.4.8-1.6 2.3-4.4 3-5.3.3-.4.9-.5 1.3-.2s.5.9.2 1.3c-.7 1-2.7 4.8-3.4 6.2-.2.3-.5.5-.9.5.1 0 0 0 0 0z"/><path class="st0" d="M22.9 92.7c-.2 0-.4-.1-.5-.2-.4-.3-.5-.8-.2-1.3 1.2-1.7 4.3-5.9 4.9-6.6l.3-.3.2-.2c.5-.5 1.4-1.6 2.1-3 2-3.6 4.1-8.8 4.4-9.6.2-.7.6-1.8 1-2.9.4-1.2 1.1-2.9 1.1-3.3 0-1.1 1.3-3.4 1.9-3.8.1-.1.2-.4.4-.8.6-1.4 2.7-3 3.8-3.5.3-.1.5-.3.7-.5-.9-.7-1.6-1-1.9-1-.1 0-.8-.1-2.3 0-1.4 0-2.6.7-2.6.7-.4.2-1 .1-1.2-.4-.2-.4-.1-1 .4-1.2.1 0 1.6-.9 3.4-.9 1.6-.1 2.4 0 2.5 0 1.1 0 2.3.9 3.3 1.7.3 0 .5.1.7.4.2.3.2.7 0 1-.1.1-.8 1.1-2 1.8-1.1.6-2.7 1.9-2.9 2.5-.4 1-.5 1.4-1.1 1.7-.2.3-1.1 1.9-1.1 2.3 0 .6-.4 1.6-1.2 3.9-.4 1.1-.8 2.2-1 2.8-.3 1.1-2.5 6.5-4.5 10-1.2 2.2-2.6 3.6-2.9 3.8-.6.7-3.6 4.7-4.8 6.5-.3.2-.6.4-.9.4z"/><path class="st0" d="M14.4 103.6l-1.6-.8c.3-.5 1.6-2.1 4.6-5.8 2-2.4 4.2-5 4.7-5.8l1.5 1c-.6.9-2.6 3.3-4.8 5.9-1.8 2.3-4.1 5.1-4.4 5.5zM40.7 60.2c-.2 0-.3 0-.5-.1-.4-.3-.5-.8-.3-1.2.6-.9 2.9-2.6 3.6-3.1.4-.3 1-.2 1.3.2.3.4.2 1-.2 1.3-1.3.9-2.9 2.2-3.1 2.6-.2.1-.5.3-.8.3zM22.9 59.5c-.1-.4-.5-1.7.1-2.5l1.5 1.1c0 .1 0 .6.1.9l-1.7.5zM18.7 58.5c-.1-.2-.9-1.4-.8-2.4l1.8.1c0 .3.3.9.6 1.4l-1.6.9zM30 56.4h-.1c-.5-.1-.8-.5-.8-1 .1-.5.4-1.8 1.3-2.2.5-.2 1 .1 1.1.6.1.4-.1.9-.4 1.1-.1.1-.2.5-.2.8-.1.4-.5.7-.9.7zM23.3 52.5c0-.1-.4-.8-.5-1.6l1.8-.2c0 .4.2.8.3.9l-1.6.9z"/><path class="st0" d="M23.7 52.8l.1-.2-1.3-1.1c.5-.6 1.3-.6 1.8-.4l-.5 1.5-.1.2zM20.9 66.5l-1.7-.5c.7-2.1 4.5-3.4 5.3-3.6l.5 1.7c-1.5.5-3.9 1.6-4.1 2.4zM14.7 63c-.4 0-.7 0-1-.1l.6-1.7c.3.1 1.2 0 1.7-.1l.5 1.7c-.2 0-1 .2-1.8.2zM28.6 69.2c-.5 0-.9-.4-.9-.9-.1-1.9.6-3.6.7-3.7.2-.5.7-.7 1.2-.5.5.2.7.7.5 1.2 0 0-.6 1.4-.5 2.9-.1.6-.4 1-1 1zM94.9 49c-.3 0-.5-.1-.7-.4-.4-.6-.9-1.8-.1-2.8.2-.3.8-1 4.7-.8 0 0 2.2-.1 3-.1 1.1-.1 2.4.3 3.8.7.7.2 1.4.4 2.1.5.9.2 1.9.3 2.5.3h.4c.5.1.8.5.8 1-.1.5-.5.9-1 .8h-.4c-.7-.1-1.8-.2-2.7-.4-.8-.2-1.5-.4-2.3-.6-1.2-.3-2.4-.6-3.3-.6-.8 0-3 .1-3 .1-2.7-.1-3.3.3-3.3.3l.3.6c.3.4.2 1-.2 1.3-.2 0-.4.1-.6.1z"/><path class="st0" d="M126 85.7c-.5 0-.8-.3-.9-.8-.1-.8.4-4.4 1.5-11.9.3-2.2.6-4 .6-4.5 0-.4.1-1 .1-1.7.1-1.8.3-4.2.7-5.8.4-1.7-.9-3.4-1.9-4-1.5-.9-3-2.4-3.8-3.8-.5-.8-3.7-3.3-5.8-4.7-.3-.2-1.6-.8-2.5-.7h-.7c-.6 0-1 .1-1.4.2h-.2c-.4 0-1.6.1-2.2.3-.5.1-1.4.1-2.8.2-.9 0-2 0-2.4.1-.6.2-1.1.2-1.5.2h-2.2c-.5.2-1.3.3-1.4.3H99s-1.2-.1-2.7-.3c-.6-.1-.9 0-1.1 0 0 .3 0 .8.7 1.5.5.5 3.4 1.2 5.9 1.2.3 0 .6 0 .8-.1.5-.1 1 .2 1 .7.1.5-.2 1-.7 1-.3.1-.7.1-1.1.1-1.8 0-6-.4-7.3-1.8-1.4-1.6-1.2-2.8-1.1-3.2.1-.6.6-1.5 3-1.2 1.2.1 2.2.2 2.5.3.2 0 .6-.1.9-.2.4-.2.9-.1 1.4-.1h.7c.2 0 .4 0 .6-.1.3 0 .7-.1 1.2-.2.6-.2 1.7-.2 2.9-.2.9 0 1.9 0 2.3-.1.9-.2 2.2-.3 2.5-.3.6-.2 1.1-.2 1.7-.2h.7c1.5-.1 3 .7 3.6 1 .9.6 5.4 3.8 6.3 5.3.6 1.1 2 2.4 3.2 3.2 1.7 1.1 3.3 3.5 2.7 5.9-.3 1.4-.5 3.8-.6 5.5 0 .7-.1 1.3-.1 1.7-.1.5-.3 2.3-.6 4.5-.6 3.7-1.6 10.7-1.5 11.5.1.7-.3 1.1-.8 1.2zM95.4 48.8z"/><path class="st0" d="M101.4 60.3c-.9 0-1.6-.4-2.1-.9-.9-.9-1-2.2-.4-3 .5-.7 1.4-1.8 1.7-2.2.3-.6 1-1.7 1.4-2.1.6-.7 3.4-2.8 4.3-3.3.5-.3 1.7-.5 3.5-1 1.1-.2 2.5-.5 2.8-.7 0 0 1.7-.7 2.8-.7h.2c.3 0 .5.1.7.2.3.2.4.6.3 1-.1.3-.4.6-.8.6s-1.5.2-2.3.6c-.5.2-1.5.5-3.2.8-1.1.2-2.7.6-3.1.8-.8.4-3.4 2.4-3.8 2.9-.5.6-1.1 1.5-1.2 1.7 0 .1-.1.2-.2.3 0 0-1.2 1.4-1.8 2.2-.1.1 0 .4.3.6.5.5 1.4.4 2.4-.3 1.2-.9 3.6-3.2 3.9-3.7.1-.4.5-.7.9-.6.6 0 1.7 0 2.2-.2.8-.4 1.9-.6 2.9-.7l.6-.1c.2 0 .5 0 .7.2 1.1.8 2.5 1.8 2.8 1.9.5.2.6.7.4 1.2-.2.5-.7.6-1.2.4-.6-.3-2.1-1.4-2.8-1.9h-.3c-.8.1-1.8.3-2.3.5-.7.4-1.8.4-2.5.4-1.1 1.6-4.1 4-4.1 4-1 .8-1.9 1.1-2.7 1.1z"/><path class="st0" d="M106.7 60.2c-.3 0-.7-.2-.8-.5-.7-1.5-1-2.1-1.1-2.4-.3-.4-.1-1 .3-1.2.4-.3 1-.1 1.2.3.3.4.7 1.3 1.2 2.6.2.5 0 1-.5 1.2h-.3zM110.4 63.6c-.4 0-.7-.2-.8-.6-.2-.5 0-1 .5-1.2l.3-.1c.5-.2 1-.4 1.6-.4.1-.1.2-.1.3-.1v-.9c0-.5.4-.9.9-.9s.9.4.9.9 0 1.5.1 1.9c.1.4-.1.8-.5.9-.3.2-.6.1-.9 0-.2.1-.5.2-.7.2-.3-.1-.5 0-1 .2l-.3.1h-.4zM110.6 91.7c-.3 0-.6-.2-.8-.5-.5-1-1.2-2.6-1.9-4-.5-1.2-1.1-2.5-1.3-2.8-.2-.3-1.5-1.8-2.4-4.1-1.7-4-2.8-9.5-3-10.3-.1-.6-.4-1.8-.7-2.9-.6-2.4-.9-3.5-.8-4 0-.4-.6-2.1-.9-2.5-.4-.4-.5-.7-.8-1.7-.2-.7-1.6-2.2-2.7-2.9-.2-.1-.4-.3-.5-.4-.4-.3-.4-.9-.1-1.3.3-.4.9-.4 1.3-.1.1.1.2.2.4.3 1 .6 3 2.4 3.4 3.8.1.5.2.8.3.9.6.5 1.6 2.9 1.5 4 0 .4.5 2.2.8 3.4.3 1.2.6 2.3.7 3 .1.8 1.2 6.1 2.9 9.9.6 1.5 1.4 2.6 1.8 3.2l.2.2.2.3c.3.4.8 1.5 1.5 3.1.6 1.4 1.3 3 1.8 3.9.2.4.1 1-.4 1.2-.2.2-.3.3-.5.3zM132.7 99.8c-.4 0-.8-.3-.9-.7-.1-.6-1.7-3.7-3-6.3-2.7-5.4-3.7-7.3-3.7-8 0-.5.3-.9.8-1 .5 0 .9.3 1 .8.1.7 2.1 4.6 3.5 7.4 1.8 3.6 3 5.9 3.2 6.6.1.5-.2 1-.7 1.1-.1.1-.1.1-.2.1z"/><path class="st0" d="M118.7 104c-.4 0-.7-.2-.8-.6-.2-.5-2.2-3.4-3.8-5.8-1.9-2.8-3.7-5.5-4.2-6.4-.2-.4-.1-1 .4-1.2.4-.2 1-.1 1.2.4.5.9 2.4 3.7 4.1 6.3 2.6 3.9 3.8 5.6 4 6.1.2.5 0 1-.5 1.2h-.4zM102.3 54.1c-.1 0-.3 0-.4-.1-.4-.2-1.1-.5-1.9-.6-1.5-.2-2.2-.2-2.2-.2-.2 0-.5 0-1.1.3-.4.2-1 0-1.2-.4-.2-.5 0-1 .4-1.2.7-.4 1.4-.5 1.9-.5 0 0 .8 0 2.4.3 1 .1 1.9.5 2.4.8.4.2.6.8.4 1.2-.1.2-.4.4-.7.4zM97.7 57.7c-.3 0-.6-.2-.8-.5 0-.1-.3-.5-1.8-1.9-.4-.3-.4-.9 0-1.3.3-.4.9-.4 1.3 0 1.6 1.5 2 2.1 2.1 2.4.2.4 0 1-.4 1.2-.1 0-.3.1-.4.1zM114 60.3c-.1 0-.2 0-.4-.1-.5-.2-.7-.7-.5-1.2.1-.3.2-.8.2-.9-.3-.4-.1-1 .3-1.2.4-.2 1-.1 1.2.3.5.9 0 2.1-.1 2.5-.1.4-.4.6-.7.6zM113.5 54.2c-.2 0-.4-.1-.6-.2-.4-.3-.4-.9-.1-1.3.3-.4.7-1 .7-1.3 0-.5.4-.9 1-.8.5 0 .9.5.8 1-.1 1-.9 2.1-1.1 2.3-.1.2-.4.3-.7.3zM107.6 55.4c-.5 0-.9-.4-.9-.9 0-.3-.1-.7-.2-.8-.4-.2-.5-.7-.3-1.1.2-.5.7-.6 1.2-.4.9.4 1.1 1.7 1.1 2.3 0 .5-.4.9-.9.9zM113.9 72.3c-.1 0-.3 0-.4-.1-.5-.2-.7-.7-.4-1.2 1.7-3.8-.1-7.7-.6-8.1-.3-.3-.4-.9 0-1.3.3-.4.9-.4 1.2-.1.9.8 3 5.7 1 10.2-.1.4-.4.6-.8.6z"/><path class="st0" d="M113.9 72.3c-.1 0-.3 0-.4-.1-.5-.2-.6-.7-.4-1.2 1.7-3.7 0-7.7-.5-8.1-.3-.4-.4-.9 0-1.3.3-.4.9-.4 1.2 0 .9.9 3 5.7.9 10.2-.1.3-.4.5-.8.5zM119 64.2c-.9 0-1.9-.4-2.1-.5-.5-.2-.7-.7-.5-1.2.2-.5.7-.7 1.2-.5.5.2 1.3.4 1.7.3.5-.1 1 .2 1.1.7.1.5-.2 1-.7 1.1-.2.1-.5.1-.7.1z"/><path class="st0" d="M112.5 66.7h-.1c-.5-.1-.8-.5-.8-1 .2-1.5-.2-3-.2-3-.1-.5.1-1 .6-1.1.5-.1 1 .1 1.1.6 0 .1.6 1.9.3 3.7-.1.4-.5.8-.9.8zM111.5 56.8h-.1c-.2 0-.6-.1-2.8-1.8-.4-.3-.5-.9-.2-1.3s.9-.5 1.3-.2c.8.6 1.8 1.4 2.1 1.5.5.1.8.5.7 1-.1.5-.5.8-1 .8z"/><path class="st0" d="M106.4 67.2c-.2 0-.5 0-.7-.1-1.1-.4-1.6-1.2-1.3-2.3.4-1.6.6-2.4.8-2.8 0-1 .1-1.3.1-1.4l.1-.2c.3-.9.6-1.9 1.2-2.5.7-.7 6.7-3.9 7.5-4 1.1-.2 5.8 2.1 6.3 2.5.2.1 1 .7 1.8 1.2 3.2 2.1 4.8 3.2 5.2 3.9.3.4.2 1-.2 1.3-.4.3-1 .2-1.3-.2-.4-.5-3.3-2.5-4.7-3.4-1.3-.9-1.8-1.2-2-1.4-.5-.4-4.1-2-4.8-2.1-.5.2-5.9 3-6.4 3.5-.2.2-.4.8-.7 1.7-.1.2-.1.3-.1.4v.9c0 .2-.1.4-.2.6 0 .1-.2.6-.6 2.4v.2s.1 0 .2.1c.3.1 1.1-.4 2.1-1.6.7-.8 1.3-1.9 1.6-2.4.1-.1.2-.3.3-.4 1-.7 2.7-1.9 3-2.2.2-.2.4-.3.7-.2.2 0 .5.1.6.3 1 1.2 2.6 3 3.1 3.3.4.3.5.8.2 1.3-.3.4-.8.5-1.3.2-.6-.4-2-2-2.9-3-.8.6-1.8 1.3-2.3 1.6-.4.7-1 1.8-1.8 2.6-.9.8-2.1 2.2-3.5 2.2z"/><path class="st0" d="M118.2 69.4c-.3 0-.6-.2-.8-.5-.7-1.4-1-5.2-1-5.9 0-.5.3-.9.8-1 .5-.1.9.3 1 .8.1 1.6.4 4.4.8 5.2.2.4.1 1-.4 1.2-.2.2-.3.2-.4.2z"/><path class="st0" d="M118.2 69.4c-.3 0-.6-.2-.8-.5-.7-1.4-1.1-5.2-1.2-5.9 0-.5.3-.9.8-1 .5 0 .9.3 1 .8.1 1.6.5 4.4.9 5.2.2.4.1 1-.4 1.2 0 .1-.2.2-.3.2zM110.6 62.9c-.4 0-.8-.3-.9-.8 0 .1-.3-.3-.6-.4-.4-.3-.5-.9-.2-1.3s.9-.5 1.3-.2c.8.6 1.2 1.2 1.3 1.7.1.5-.3.9-.8 1h-.1z"/></svg>