<svg xmlns="http://www.w3.org/2000/svg" viewBox="0 0 134 104"><path d="M44.3 28.4H29.2c-3.6 0-6.6-3-6.6-6.6V6.6c0-3.6 3-6.6 6.6-6.6h15.1c3.6 0 6.6 3 6.6 6.6v15.1c0 3.7-2.9 6.7-6.6 6.7zM29.2 1.9c-2.6 0-4.7 2.1-4.7 4.7v15.1c0 2.6 2.1 4.7 4.7 4.7h15.1c2.6 0 4.7-2.1 4.7-4.7V6.6c0-2.6-2.1-4.7-4.7-4.7H29.2zm15.1 22.7H29.2c-1.6 0-2.8-1.3-2.8-2.8V6.6c0-1.6 1.3-2.8 2.8-2.8h15.1c1.6 0 2.8 1.3 2.8 2.8v15.1c0 1.6-1.2 2.9-2.8 2.9zM29.2 5.7c-.5 0-.9.4-.9.9v15.1c0 .5.4.9.9.9h15.1c.5 0 .9-.4.9-.9V6.6c0-.5-.4-.9-.9-.9H29.2zM44.3 66.2H29.2c-3.6 0-6.6-3-6.6-6.6V44.4c0-3.6 3-6.6 6.6-6.6h10.4c1.6 0 2.8 1.3 2.8 2.8 0 1.6-1.3 2.8-2.8 2.8H29.2c-.5 0-.9.4-.9.9v15.1c0 .5.4.9.9.9h15.1c.5 0 .9-.4.9-.9V52c0-1.6 1.3-2.8 2.8-2.8 1.6 0 2.8 1.3 2.8 2.8v7.6c.1 3.6-2.8 6.6-6.5 6.6zM29.2 39.7c-2.6 0-4.7 2.1-4.7 4.7v15.1c0 2.6 2.1 4.7 4.7 4.7h15.1c2.6 0 4.7-2.1 4.7-4.7V52c0-.5-.4-.9-.9-.9s-.9.4-.9.9v7.6c0 1.6-1.3 2.8-2.8 2.8H29.2c-1.6 0-2.8-1.3-2.8-2.8V44.4c0-1.6 1.3-2.8 2.8-2.8h10.4c.5 0 .9-.4.9-.9s-.4-.9-.9-.9H29.2zM44.3 104H29.2c-3.6 0-6.6-3-6.6-6.6V82.3c0-3.6 3-6.6 6.6-6.6h15.1c3.6 0 6.6 3 6.6 6.6v15.1c0 3.6-2.9 6.6-6.6 6.6zM29.2 77.5c-2.6 0-4.7 2.1-4.7 4.7v15.1c0 2.6 2.1 4.7 4.7 4.7h15.1c2.6 0 4.7-2.1 4.7-4.7v-15c0-2.6-2.1-4.7-4.7-4.7H29.2zm15.1 22.7H29.2c-1.6 0-2.8-1.3-2.8-2.8V82.3c0-1.6 1.3-2.8 2.8-2.8h15.1c1.6 0 2.8 1.3 2.8 2.8v15.1c0 1.5-1.2 2.8-2.8 2.8zM29.2 81.3c-.5 0-.9.4-.9.9v15.1c0 .5.4.9.9.9h15.1c.5 0 .9-.4.9-.9v-15c0-.5-.4-.9-.9-.9H29.2zM85.9 7.6H60.4c-1.6 0-2.8-1.3-2.8-2.8S58.9 2 60.4 2h25.5c1.6 0 2.8 1.3 2.8 2.8s-1.2 2.8-2.8 2.8zM60.4 3.8c-.5 0-.9.4-.9.9s.4.9.9.9h25.5c.5 0 .9-.4.9-.9s-.4-.9-.9-.9H60.4zM108.6 17H60.4c-1.6 0-2.8-1.3-2.8-2.8s1.3-2.8 2.8-2.8h48.2c1.6 0 2.8 1.3 2.8 2.8s-1.2 2.8-2.8 2.8zm-48.2-3.8c-.5 0-.9.4-.9.9s.4.9.9.9h48.2c.5 0 .9-.4.9-.9s-.4-.9-.9-.9H60.4zM101 26.5H60.4c-1.6 0-2.8-1.3-2.8-2.8s1.3-2.8 2.8-2.8H101c1.6 0 2.8 1.3 2.8 2.8s-1.2 2.8-2.8 2.8zm-40.6-3.8c-.5 0-.9.4-.9.9s.4.9.9.9H101c.5 0 .9-.4.9-.9s-.4-.9-.9-.9H60.4zM85.9 45.4H60.4c-1.6 0-2.8-1.3-2.8-2.8 0-1.6 1.3-2.8 2.8-2.8h25.5c1.6 0 2.8 1.3 2.8 2.8 0 1.5-1.2 2.8-2.8 2.8zm-25.5-3.8c-.5 0-.9.4-.9.9s.4.9.9.9h25.5c.5 0 .9-.4.9-.9s-.4-.9-.9-.9H60.4zM108.6 54.8H60.4c-1.6 0-2.8-1.3-2.8-2.8s1.3-2.8 2.8-2.8h48.2c1.6 0 2.8 1.3 2.8 2.8s-1.2 2.8-2.8 2.8zm-48.2-3.7c-.5 0-.9.4-.9.9s.4.9.9.9h48.2c.5 0 .9-.4.9-.9s-.4-.9-.9-.9H60.4zM101 64.3H60.4c-1.6 0-2.8-1.3-2.8-2.8 0-1.6 1.3-2.8 2.8-2.8H101c1.6 0 2.8 1.3 2.8 2.8.1 1.5-1.2 2.8-2.8 2.8zm-40.6-3.8c-.5 0-.9.4-.9.9s.4.9.9.9H101c.5 0 .9-.4.9-.9s-.4-.9-.9-.9H60.4zM85.9 83.2H60.4c-1.6 0-2.8-1.3-2.8-2.8 0-1.6 1.3-2.8 2.8-2.8h25.5c1.6 0 2.8 1.3 2.8 2.8 0 1.5-1.2 2.8-2.8 2.8zm-25.5-3.8c-.5 0-.9.4-.9.9s.4.9.9.9h25.5c.5 0 .9-.4.9-.9s-.4-.9-.9-.9H60.4zM108.6 92.7H60.4c-1.6 0-2.8-1.3-2.8-2.8s1.3-2.8 2.8-2.8h48.2c1.6 0 2.8 1.3 2.8 2.8s-1.2 2.8-2.8 2.8zm-48.2-3.8c-.5 0-.9.4-.9.9s.4.9.9.9h48.2c.5 0 .9-.4.9-.9s-.4-.9-.9-.9H60.4zM101 102.1H60.4c-1.6 0-2.8-1.3-2.8-2.8s1.3-2.8 2.8-2.8H101c1.6 0 2.8 1.3 2.8 2.8s-1.2 2.8-2.8 2.8zm-40.6-3.8c-.5 0-.9.4-.9.9s.4.9.9.9H101c.5 0 .9-.4.9-.9s-.4-.9-.9-.9H60.4z"/><path d="M35.8 57.7c-.8 0-1.5-.3-2-.8l-4.7-4.7c-.5-.5-.8-1.3-.8-2 0-.8.3-1.5.8-2 1.1-1.1 2.9-1.1 4 0l2.7 2.7L53.6 33c1.1-1.1 2.9-1.1 4 0 .5.5.8 1.2.8 2s-.3 1.5-.8 2L37.8 56.8c-.5.6-1.2.9-2 .9zm-4.7-8.5c-.2 0-.5.1-.7.3-.2.2-.3.4-.3.7 0 .3.1.5.3.7l4.7 4.7c.4.4 1 .4 1.3 0l19.9-19.9c.2-.2.3-.4.3-.7 0-.3-.1-.5-.3-.7-.4-.4-1-.4-1.3 0L35.8 53.5l-4.1-4.1c-.1-.1-.4-.2-.6-.2z"/><path fill="none" d="M22.6 0h88.9v104H22.6z"/></svg>