<svg xmlns="http://www.w3.org/2000/svg" viewBox="0 0 134 104"><path d="M69.3 93c-.9 0-1.8 0-2.8-.1-5.5.1-11-.5-16.4-1.9-14.3-3.9-26.8-15.6-33.3-31.4-.9-2.1-1.7-4.3-2.4-6.5-.9-2-1.4-4.1-1.4-6.3.1-1.1.5-2.1 1-3 .4-.8.8-1.6.9-2.4 0-2.3-1.3-4.4-3.4-5.3-2.6-1-7.5-1.5-10.4-1.3l-.1-1c3-.2 8 .2 10.9 1.4 2.5 1.1 4.1 3.5 4 6.3-.1 1-.6 1.9-1 2.8-.4.9-.8 1.7-.9 2.6.1 2 .5 4 1.4 5.9.7 2.2 1.6 4.4 2.4 6.5 6.4 15.5 18.6 27 32.6 30.8 5.3 1.3 10.8 2 16.3 1.9 12.1.5 24-2.4 34.4-8.6 1.5-.9 2.8-1.9 4.1-3 9.4-8.4 12.9-20.4 16.2-31.9.7-2.5 1.4-5 2.2-7.5.5-1.8 1.3-3.6 2.2-5.2 1.1-1.6 2.4-2.9 3.8-4 .2-.2.5-.4.7-.6 1.9-1.5 2.7-2.2 2.4-5-.3-2.6-.5-5.3-.5-7.9 0-.3 0-.6.1-.9.1-.9.1-1.4-.3-1.8-1.1-.7-2.4-1-3.8-1-20.9-2.3-42.2-3-63.1-2.2h-1.6c-15.8.8-31.2 4.3-45.8 10.4-2 .5-4.1.6-6.1.2l-3-.2L0 23v-1l8.5-.2 3.1.2c1.9.3 3.8.2 5.6-.2 14.6-6.1 30.1-9.7 46-10.4h1.6c21-.8 42.3-.1 63.2 2.2 1.5 0 3 .4 4.3 1.2.9.8.8 1.8.8 2.7 0 .3-.1.5-.1.8 0 2.6.2 5.3.5 7.8.4 3.4-.8 4.3-2.8 5.9-.2.2-.5.4-.7.6-1.4 1.1-2.6 2.3-3.6 3.8-.9 1.5-1.6 3.2-2.1 4.9-.8 2.5-1.5 5-2.2 7.4-3.3 11.7-6.8 23.8-16.5 32.4a33.6 33.6 0 0 1-4.3 3.1C91.7 90 80.6 93 69.3 93z"/><path d="M67.6 88.2c-5.9 0-11.5-.9-16.6-2.8C35.3 79.2 24 65 21.4 48.3c-1.6-9.6-1.7-21 11.7-25.1 12.8-3.7 26.1-5.8 39.5-6 8.8-.2 17.6 0 26.4.7.6 0 1.1.1 1.7.1 6.7.5 14.2 1 17.7 8 2.6 5.2 1.4 10.4-.2 16.2-1.6 5.8-3.5 11.7-5.6 17.4C108 72.3 100.4 80.5 90 84.2c-7.6 2.6-15.2 4-22.4 4zm11.5-70.1c-2.2 0-4.4 0-6.5.1-13.3.3-26.5 2.3-39.2 6-9.8 3-13.2 10.4-11 24 2.5 16.3 13.6 30.2 29 36.3 11 4 24.6 3.6 38.3-1.3 10-3.5 17.4-11.6 21.9-23.8 2-5.7 3.9-11.5 5.5-17.3 1.5-5.6 2.6-10.6.2-15.5-3.2-6.5-10.1-7-16.8-7.5-.6 0-1.2-.1-1.7-.1-6.5-.6-13.1-.9-19.7-.9z"/><path d="M26.9 62.9h83.6v1H26.9zM61.3 50c-.9 0-1.6.3-2.1.9-.5.6-.8 1.4-.8 2.4s.2 1.8.7 2.4c.5.6 1.2.9 2.1.9.6 0 1.2-.1 1.7-.2v.4c-.5.2-1.1.3-1.8.3-1 0-1.8-.3-2.4-1-.6-.7-.9-1.6-.9-2.7 0-.7.1-1.4.4-1.9.3-.6.7-1 1.2-1.3.5-.3 1.1-.5 1.8-.5s1.3.1 1.9.4l-.2.5c-.5-.4-1-.6-1.6-.6M64.3 49.2h.5v7.7h-.5zM68.8 57c-.8 0-1.4-.2-1.8-.7-.4-.5-.7-1.1-.7-2 0-.9.2-1.5.6-2.1.4-.5 1-.8 1.7-.8.6 0 1.1.2 1.5.7.4.4.5 1 .5 1.8v.4h-3.9c0 .7.2 1.3.5 1.7.3.4.8.6 1.4.6.3 0 .6 0 .8-.1.2 0 .5-.1.9-.3v.4c-.3.1-.6.2-.8.3-.1 0-.4.1-.7.1m-.2-5.1c-.5 0-.9.2-1.2.5-.3.3-.5.8-.5 1.5h3.3c0-.6-.1-1.1-.4-1.5-.3-.4-.7-.5-1.2-.5M75.4 56.9l-.1-.9c-.3.3-.5.6-.8.7s-.6.2-1 .2c-.5 0-.9-.1-1.2-.4-.3-.3-.4-.6-.4-1.1 0-.5.2-.9.7-1.2.4-.3 1.1-.4 1.9-.5h1v-.4c0-.5-.1-.9-.3-1.2-.2-.3-.5-.4-1-.4s-1 .1-1.5.4l-.2-.4c.6-.3 1.2-.4 1.7-.4.6 0 1 .2 1.3.5.3.3.4.8.4 1.4v3.6h-.5zm-2-.4c.6 0 1-.2 1.4-.5.3-.3.5-.8.5-1.4v-.5h-.9c-.7 0-1.3.2-1.6.4-.3.2-.5.5-.5.9 0 .3.1.6.3.8.2.2.4.3.8.3M79.6 51.4c.2 0 .5 0 .7.1l-.1.5c-.2-.1-.5-.1-.7-.1-.5 0-.8.2-1.1.6-.3.4-.4.9-.4 1.5v2.9h-.5v-5.3h.4v1c.2-.4.5-.7.7-.8.3-.3.6-.4 1-.4M43.1 75.6h-.5v-7.2h3.9v.5h-3.4V72h3.3v.4h-3.3zM48 70.3v3.5c0 .5.1.9.3 1.2.2.2.6.4 1.1.4.6 0 1.1-.2 1.4-.5.3-.3.4-.8.4-1.6v-3h.5v5.3h-.4l-.1-.7c-.3.6-1 .8-1.9.8-1.2 0-1.8-.7-1.8-2v-3.5h.5zM53.5 68h.5v7.7h-.5zM55.8 68h.5v7.7h-.5zM61.3 72.5v3.1h-.5v-7.2h1.7c.9 0 1.6.2 2 .5.4.3.6.8.6 1.5 0 .5-.1.9-.4 1.2-.3.3-.6.6-1.2.7l2 3.3h-.6L63 72.5h-1.7zm0-.4h1.4c.6 0 1.1-.1 1.4-.4.3-.3.5-.7.5-1.2s-.2-.9-.5-1.2c-.3-.2-.9-.4-1.6-.4h-1.2v3.2zM68.8 75.7c-.8 0-1.4-.2-1.8-.7-.4-.5-.7-1.1-.7-2 0-.9.2-1.5.6-2 .4-.5 1-.8 1.7-.8.6 0 1.1.2 1.5.7.4.4.5 1 .5 1.8v.3h-3.9c0 .7.2 1.3.5 1.7.3.4.8.6 1.4.6.3 0 .6 0 .8-.1.2 0 .5-.1.9-.3v.4c-.3.1-.6.2-.8.3-.1.1-.4.1-.7.1m-.1-5.1c-.5 0-.9.2-1.2.5-.3.3-.5.8-.5 1.5h3.3c0-.6-.1-1.1-.4-1.5-.4-.3-.8-.5-1.2-.5M75.4 75.6l-.1-.8c-.3.3-.5.6-.8.7-.3.1-.6.2-1 .2-.5 0-.9-.1-1.2-.4-.3-.3-.4-.6-.4-1.1 0-.5.2-.9.7-1.2.4-.3 1.1-.4 1.9-.5h1v-.4c0-.5-.1-.9-.3-1.2-.2-.3-.5-.4-1-.4s-1 .1-1.5.4l-.2-.4c.6-.3 1.2-.4 1.7-.4.6 0 1 .2 1.3.5.3.3.4.8.4 1.4v3.6h-.5zm-2-.3c.6 0 1-.2 1.4-.5.3-.3.5-.8.5-1.4v-.5h-.9c-.7 0-1.3.2-1.6.4-.3.2-.5.5-.5.9 0 .3.1.6.3.8.2.2.5.3.8.3M79.5 70.2c.4 0 .7.1 1 .2.3.1.5.4.8.7V68h.5v7.7h-.3l-.1-.8c-.4.6-1 .9-1.7.9s-1.3-.2-1.7-.7c-.4-.5-.6-1.1-.6-2 0-.9.2-1.6.6-2.1.2-.6.7-.8 1.5-.8m0 .4c-.6 0-1 .2-1.3.6-.3.4-.4 1-.4 1.8 0 1.5.6 2.3 1.8 2.3.6 0 1-.2 1.3-.5.3-.4.4-.9.4-1.7V73c0-.8-.1-1.4-.4-1.8-.4-.4-.8-.6-1.4-.6M83.4 68.8c0-.3.1-.5.3-.5.1 0 .2 0 .2.1.1.1.1.2.1.3 0 .1 0 .3-.1.3-.1.1-.1.1-.2.1-.2.2-.3 0-.3-.3m.6 6.8h-.5v-5.3h.5v5.3zM89.5 75.6v-3.5c0-.5-.1-.9-.3-1.2-.2-.2-.6-.4-1.1-.4-.6 0-1.1.2-1.4.5-.3.3-.4.8-.4 1.6v3h-.5v-5.3h.4l.1.7c.3-.6 1-.8 1.9-.8 1.2 0 1.8.7 1.8 2v3.5h-.5zM95.9 70.3v.3l-1.1.1c.3.4.4.8.4 1.2 0 .5-.2.9-.5 1.3-.3.3-.8.5-1.4.5h-.5c-.2.1-.3.2-.4.4-.1.1-.2.3-.2.4 0 .2.1.3.2.4.1.1.3.1.7.1h.9c.6 0 1 .1 1.3.4.3.2.5.6.5 1 0 .6-.2 1-.7 1.3-.5.3-1.1.5-2 .5-.7 0-1.2-.1-1.6-.4-.4-.3-.6-.6-.6-1.1 0-.4.1-.7.3-.9.2-.2.5-.4.9-.5-.2-.1-.3-.2-.4-.3-.1-.1-.1-.3-.1-.4 0-.4.2-.7.7-.9-.3-.1-.6-.3-.7-.6-.2-.3-.3-.6-.3-.9 0-.5.2-1 .5-1.3.3-.3.8-.5 1.4-.5.4 0 .6 0 .8.1h1.9zm-4.3 6.2c0 .7.5 1.1 1.6 1.1 1.4 0 2.1-.4 2.1-1.3 0-.3-.1-.6-.3-.7-.2-.1-.6-.2-1.1-.2H93c-.9 0-1.4.4-1.4 1.1M92 72c0 .4.1.7.4 1 .3.2.6.3 1 .3s.8-.1 1-.3c.2-.2.4-.6.4-1 0-.5-.1-.8-.4-1-.2-.2-.6-.3-1-.3s-.8.1-1 .4c-.3.1-.4.4-.4.9M.4 22.3h1v12.8h-1z"/></svg>